<mxfile host="app.diagrams.net" modified="2024-06-11T21:57:40.598Z" agent="Mozilla/5.0 (X11; Linux x86_64) AppleWebKit/537.36 (KHTML, like Gecko) Chrome/118.0.5615.213 Safari/537.36" etag="N6tsvf1HCe-RbjkEQ1Bj" version="24.5.3" type="device">
  <diagram name="Page-1" id="9dDk0zf2ElysKSQKNrrg">
    <mxGraphModel dx="1254" dy="801" grid="1" gridSize="10" guides="1" tooltips="1" connect="1" arrows="1" fold="1" page="1" pageScale="1" pageWidth="3300" pageHeight="2339" math="0" shadow="0">
      <root>
        <mxCell id="0" />
        <mxCell id="1" parent="0" />
        <mxCell id="KS-wqAkKazjO4-zXT2j7-1" value="Digitisation" style="swimlane;fontStyle=0;childLayout=stackLayout;horizontal=1;startSize=26;strokeColor=#FFFAA0;strokeWidth=3;fillColor=none;horizontalStack=0;resizeParent=1;resizeParentMax=0;resizeLast=0;collapsible=1;marginBottom=0;whiteSpace=wrap;html=1;" parent="1" vertex="1">
          <mxGeometry x="1005" y="400" width="150" height="52" as="geometry" />
        </mxCell>
        <mxCell id="KS-wqAkKazjO4-zXT2j7-2" value="rico:Activity" style="text;strokeColor=#FFFAA0;strokeWidth=3;fillColor=none;align=center;verticalAlign=top;spacingLeft=4;spacingRight=4;overflow=hidden;rotatable=0;points=[[0,0.5],[1,0.5]];portConstraint=eastwest;whiteSpace=wrap;html=1;" parent="KS-wqAkKazjO4-zXT2j7-1" vertex="1">
          <mxGeometry y="26" width="150" height="26" as="geometry" />
        </mxCell>
        <mxCell id="KS-wqAkKazjO4-zXT2j7-3" value="Scanning" style="swimlane;fontStyle=0;childLayout=stackLayout;horizontal=1;startSize=26;strokeColor=#FFFAA0;strokeWidth=3;fillColor=none;horizontalStack=0;resizeParent=1;resizeParentMax=0;resizeLast=0;collapsible=1;marginBottom=0;whiteSpace=wrap;html=1;" parent="1" vertex="1">
          <mxGeometry x="1005" y="540" width="150" height="52" as="geometry" />
        </mxCell>
        <mxCell id="KS-wqAkKazjO4-zXT2j7-4" value="rico:Activity" style="text;strokeColor=#FFFAA0;strokeWidth=3;fillColor=none;align=center;verticalAlign=top;spacingLeft=4;spacingRight=4;overflow=hidden;rotatable=0;points=[[0,0.5],[1,0.5]];portConstraint=eastwest;whiteSpace=wrap;html=1;" parent="KS-wqAkKazjO4-zXT2j7-3" vertex="1">
          <mxGeometry y="26" width="150" height="26" as="geometry" />
        </mxCell>
        <mxCell id="KS-wqAkKazjO4-zXT2j7-5" value="" style="endArrow=classic;html=1;rounded=0;entryX=0.5;entryY=0;entryDx=0;entryDy=0;exitX=0.5;exitY=1.308;exitDx=0;exitDy=0;exitPerimeter=0;" parent="1" source="KS-wqAkKazjO4-zXT2j7-2" target="KS-wqAkKazjO4-zXT2j7-3" edge="1">
          <mxGeometry relative="1" as="geometry">
            <mxPoint x="1190" y="470" as="sourcePoint" />
            <mxPoint x="1130" y="430" as="targetPoint" />
          </mxGeometry>
        </mxCell>
        <mxCell id="KS-wqAkKazjO4-zXT2j7-6" value="rico:hasOrHadSubevent" style="edgeLabel;resizable=0;html=1;;align=center;verticalAlign=middle;" parent="KS-wqAkKazjO4-zXT2j7-5" connectable="0" vertex="1">
          <mxGeometry relative="1" as="geometry" />
        </mxCell>
        <mxCell id="KS-wqAkKazjO4-zXT2j7-7" value="Strinda clerical district, Bratsberg parish, 1938-1952" style="swimlane;fontStyle=0;childLayout=stackLayout;horizontal=1;startSize=26;strokeColor=#DAEEF3;strokeWidth=3;fillColor=none;horizontalStack=0;resizeParent=1;resizeParentMax=0;resizeLast=0;collapsible=1;marginBottom=0;whiteSpace=wrap;html=1;" parent="1" vertex="1">
          <mxGeometry x="940" y="960" width="290" height="48" as="geometry" />
        </mxCell>
        <mxCell id="KS-wqAkKazjO4-zXT2j7-8" value="rico:Record" style="text;strokeColor=#DAEEF3;strokeWidth=3;fillColor=none;align=center;verticalAlign=top;spacingLeft=4;spacingRight=4;overflow=hidden;rotatable=0;points=[[0,0.5],[1,0.5]];portConstraint=eastwest;whiteSpace=wrap;html=1;" parent="KS-wqAkKazjO4-zXT2j7-7" vertex="1">
          <mxGeometry y="26" width="290" height="22" as="geometry" />
        </mxCell>
        <mxCell id="KS-wqAkKazjO4-zXT2j7-9" value="" style="endArrow=classic;html=1;rounded=0;exitX=0.615;exitY=-0.038;exitDx=0;exitDy=0;entryX=0;entryY=0.5;entryDx=0;entryDy=0;exitPerimeter=0;" parent="1" source="KS-wqAkKazjO4-zXT2j7-14" target="HIHmw64CFz3xZAufGdiX-3" edge="1">
          <mxGeometry relative="1" as="geometry">
            <mxPoint x="950" y="630" as="sourcePoint" />
            <mxPoint x="1140" y="630" as="targetPoint" />
          </mxGeometry>
        </mxCell>
        <mxCell id="KS-wqAkKazjO4-zXT2j7-10" value="rico:isOrWasAffectedBy" style="edgeLabel;resizable=0;html=1;;align=center;verticalAlign=middle;" parent="KS-wqAkKazjO4-zXT2j7-9" connectable="0" vertex="1">
          <mxGeometry relative="1" as="geometry" />
        </mxCell>
        <mxCell id="KS-wqAkKazjO4-zXT2j7-11" value="" style="endArrow=classic;html=1;rounded=0;entryX=0.316;entryY=-0.115;entryDx=0;entryDy=0;exitX=1;exitY=0.5;exitDx=0;exitDy=0;entryPerimeter=0;" parent="1" source="HIHmw64CFz3xZAufGdiX-3" target="KS-wqAkKazjO4-zXT2j7-20" edge="1">
          <mxGeometry relative="1" as="geometry">
            <mxPoint x="960" y="520.0000000000002" as="sourcePoint" />
            <mxPoint x="1130" y="520" as="targetPoint" />
          </mxGeometry>
        </mxCell>
        <mxCell id="KS-wqAkKazjO4-zXT2j7-12" value="rico:resultsOrResultedIn" style="edgeLabel;resizable=0;html=1;;align=center;verticalAlign=middle;" parent="KS-wqAkKazjO4-zXT2j7-11" connectable="0" vertex="1">
          <mxGeometry relative="1" as="geometry" />
        </mxCell>
        <mxCell id="KS-wqAkKazjO4-zXT2j7-14" value="Deacon Book (Klokkerbok) L0343" style="swimlane;fontStyle=0;childLayout=stackLayout;horizontal=1;startSize=26;strokeColor=#F5DEB3;strokeWidth=2;fillColor=none;horizontalStack=0;resizeParent=1;resizeParentMax=0;resizeLast=0;collapsible=1;marginBottom=0;whiteSpace=wrap;html=1;" parent="1" vertex="1">
          <mxGeometry x="520" y="820" width="269" height="52" as="geometry" />
        </mxCell>
        <mxCell id="KS-wqAkKazjO4-zXT2j7-15" value="rico:Instantiation&lt;div&gt;&lt;br&gt;&lt;/div&gt;" style="text;strokeColor=#F5DEB3;strokeWidth=2;fillColor=#F5DEB3;align=center;verticalAlign=top;spacingLeft=4;spacingRight=4;overflow=hidden;rotatable=0;points=[[0,0.5],[1,0.5]];portConstraint=eastwest;whiteSpace=wrap;html=1;" parent="KS-wqAkKazjO4-zXT2j7-14" vertex="1">
          <mxGeometry y="26" width="269" height="26" as="geometry" />
        </mxCell>
        <mxCell id="KS-wqAkKazjO4-zXT2j7-17" value="" style="endArrow=classic;html=1;rounded=0;entryX=0.498;entryY=1.192;entryDx=0;entryDy=0;entryPerimeter=0;exitX=0;exitY=0.5;exitDx=0;exitDy=0;" parent="1" source="KS-wqAkKazjO4-zXT2j7-7" target="KS-wqAkKazjO4-zXT2j7-15" edge="1">
          <mxGeometry relative="1" as="geometry">
            <mxPoint x="950" y="430" as="sourcePoint" />
            <mxPoint x="1140" y="430" as="targetPoint" />
          </mxGeometry>
        </mxCell>
        <mxCell id="KS-wqAkKazjO4-zXT2j7-18" value="rico:hasOrHadAnalogueInstantiation" style="edgeLabel;resizable=0;html=1;;align=center;verticalAlign=middle;" parent="KS-wqAkKazjO4-zXT2j7-17" connectable="0" vertex="1">
          <mxGeometry relative="1" as="geometry" />
        </mxCell>
        <mxCell id="KS-wqAkKazjO4-zXT2j7-20" value="Digitised Deacon Book (Klokkerbok) L0343" style="swimlane;fontStyle=0;childLayout=stackLayout;horizontal=1;startSize=26;strokeColor=#F5DEB3;strokeWidth=2;fillColor=none;horizontalStack=0;resizeParent=1;resizeParentMax=0;resizeLast=0;collapsible=1;marginBottom=0;whiteSpace=wrap;html=1;" parent="1" vertex="1">
          <mxGeometry x="1381" y="820" width="269" height="52" as="geometry" />
        </mxCell>
        <mxCell id="KS-wqAkKazjO4-zXT2j7-21" value="rico:Instantiation&lt;div&gt;&lt;br&gt;&lt;/div&gt;" style="text;strokeColor=#F5DEB3;strokeWidth=2;fillColor=#F5DEB3;align=center;verticalAlign=top;spacingLeft=4;spacingRight=4;overflow=hidden;rotatable=0;points=[[0,0.5],[1,0.5]];portConstraint=eastwest;whiteSpace=wrap;html=1;" parent="KS-wqAkKazjO4-zXT2j7-20" vertex="1">
          <mxGeometry y="26" width="269" height="26" as="geometry" />
        </mxCell>
        <mxCell id="HIHmw64CFz3xZAufGdiX-1" value="" style="endArrow=classic;html=1;rounded=0;entryX=0.465;entryY=0.962;entryDx=0;entryDy=0;entryPerimeter=0;exitX=0.997;exitY=0.045;exitDx=0;exitDy=0;exitPerimeter=0;" parent="1" source="KS-wqAkKazjO4-zXT2j7-8" edge="1">
          <mxGeometry relative="1" as="geometry">
            <mxPoint x="1135" y="1002.9860000000001" as="sourcePoint" />
            <mxPoint x="1478.045" y="872.0020000000002" as="targetPoint" />
          </mxGeometry>
        </mxCell>
        <mxCell id="HIHmw64CFz3xZAufGdiX-2" value="rico:hasOrHadDigitalInstantiation" style="edgeLabel;resizable=0;html=1;;align=center;verticalAlign=middle;" parent="HIHmw64CFz3xZAufGdiX-1" connectable="0" vertex="1">
          <mxGeometry relative="1" as="geometry" />
        </mxCell>
        <mxCell id="HIHmw64CFz3xZAufGdiX-3" value="Digitisation of Deacon Book (Klokkerbok) L0343&amp;nbsp;" style="swimlane;fontStyle=0;childLayout=stackLayout;horizontal=1;startSize=26;strokeColor=#FFFAA0;strokeWidth=2;fillColor=none;horizontalStack=0;resizeParent=1;resizeParentMax=0;resizeLast=0;collapsible=1;marginBottom=0;whiteSpace=wrap;html=1;" parent="1" vertex="1">
          <mxGeometry x="920" y="690" width="340" height="52" as="geometry" />
        </mxCell>
        <mxCell id="HIHmw64CFz3xZAufGdiX-4" value="rico:Event" style="text;strokeColor=#FFFAA0;strokeWidth=2;fillColor=#FFFAA0;align=center;verticalAlign=top;spacingLeft=4;spacingRight=4;overflow=hidden;rotatable=0;points=[[0,0.5],[1,0.5]];portConstraint=eastwest;whiteSpace=wrap;html=1;" parent="HIHmw64CFz3xZAufGdiX-3" vertex="1">
          <mxGeometry y="26" width="340" height="26" as="geometry" />
        </mxCell>
        <mxCell id="HIHmw64CFz3xZAufGdiX-5" value="" style="endArrow=classic;html=1;rounded=0;entryX=0.5;entryY=0;entryDx=0;entryDy=0;exitX=0.507;exitY=1.154;exitDx=0;exitDy=0;exitPerimeter=0;" parent="1" source="KS-wqAkKazjO4-zXT2j7-4" edge="1">
          <mxGeometry relative="1" as="geometry">
            <mxPoint x="1079.5" y="610" as="sourcePoint" />
            <mxPoint x="1079.5" y="690" as="targetPoint" />
          </mxGeometry>
        </mxCell>
        <mxCell id="HIHmw64CFz3xZAufGdiX-6" value="rico:hasOrHadSubevent" style="edgeLabel;resizable=0;html=1;;align=center;verticalAlign=middle;" parent="HIHmw64CFz3xZAufGdiX-5" connectable="0" vertex="1">
          <mxGeometry relative="1" as="geometry" />
        </mxCell>
        <mxCell id="HIHmw64CFz3xZAufGdiX-7" value="" style="endArrow=classic;html=1;rounded=0;exitX=1;exitY=0.5;exitDx=0;exitDy=0;entryX=0;entryY=0.5;entryDx=0;entryDy=0;" parent="1" source="KS-wqAkKazjO4-zXT2j7-14" target="KS-wqAkKazjO4-zXT2j7-20" edge="1">
          <mxGeometry relative="1" as="geometry">
            <mxPoint x="920" y="845" as="sourcePoint" />
            <mxPoint x="1140" y="845" as="targetPoint" />
          </mxGeometry>
        </mxCell>
        <mxCell id="HIHmw64CFz3xZAufGdiX-8" value="rico:hasOrHadDerivedInstantiation" style="edgeLabel;resizable=0;html=1;;align=center;verticalAlign=middle;" parent="HIHmw64CFz3xZAufGdiX-7" connectable="0" vertex="1">
          <mxGeometry relative="1" as="geometry" />
        </mxCell>
        <mxCell id="v-RMsez0oA2oCwq1SFK7-1" value="Annotation" style="swimlane;fontStyle=0;childLayout=stackLayout;horizontal=1;startSize=26;strokeColor=#FFFAA0;strokeWidth=3;fillColor=none;horizontalStack=0;resizeParent=1;resizeParentMax=0;resizeLast=0;collapsible=1;marginBottom=0;whiteSpace=wrap;html=1;" vertex="1" parent="1">
          <mxGeometry x="1770" y="670" width="160" height="52" as="geometry" />
        </mxCell>
        <mxCell id="v-RMsez0oA2oCwq1SFK7-2" value="rico:Activity" style="text;strokeColor=#FFFAA0;strokeWidth=3;fillColor=none;align=center;verticalAlign=top;spacingLeft=4;spacingRight=4;overflow=hidden;rotatable=0;points=[[0,0.5],[1,0.5]];portConstraint=eastwest;whiteSpace=wrap;html=1;" vertex="1" parent="v-RMsez0oA2oCwq1SFK7-1">
          <mxGeometry y="26" width="160" height="26" as="geometry" />
        </mxCell>
        <mxCell id="v-RMsez0oA2oCwq1SFK7-3" value="" style="endArrow=classic;html=1;rounded=0;entryX=0.666;entryY=0.008;entryDx=0;entryDy=0;entryPerimeter=0;exitX=-0.025;exitY=0.115;exitDx=0;exitDy=0;exitPerimeter=0;" edge="1" parent="1" source="v-RMsez0oA2oCwq1SFK7-2" target="KS-wqAkKazjO4-zXT2j7-20">
          <mxGeometry relative="1" as="geometry">
            <mxPoint x="1560" y="692" as="sourcePoint" />
            <mxPoint x="1690" y="770" as="targetPoint" />
          </mxGeometry>
        </mxCell>
        <mxCell id="v-RMsez0oA2oCwq1SFK7-4" value="rico:affectsOrAffected" style="edgeLabel;resizable=0;html=1;;align=center;verticalAlign=middle;" connectable="0" vertex="1" parent="v-RMsez0oA2oCwq1SFK7-3">
          <mxGeometry relative="1" as="geometry" />
        </mxCell>
        <mxCell id="v-RMsez0oA2oCwq1SFK7-5" value="Strinda clerical district, Bratsberg parish, 1938-1952, annotated" style="swimlane;fontStyle=0;childLayout=stackLayout;horizontal=1;startSize=26;strokeColor=#DAEEF3;strokeWidth=3;fillColor=none;horizontalStack=0;resizeParent=1;resizeParentMax=0;resizeLast=0;collapsible=1;marginBottom=0;whiteSpace=wrap;html=1;" vertex="1" parent="1">
          <mxGeometry x="1720" y="960" width="370" height="48" as="geometry" />
        </mxCell>
        <mxCell id="v-RMsez0oA2oCwq1SFK7-6" value="rico:Record" style="text;strokeColor=#DAEEF3;strokeWidth=3;fillColor=none;align=center;verticalAlign=top;spacingLeft=4;spacingRight=4;overflow=hidden;rotatable=0;points=[[0,0.5],[1,0.5]];portConstraint=eastwest;whiteSpace=wrap;html=1;" vertex="1" parent="v-RMsez0oA2oCwq1SFK7-5">
          <mxGeometry y="26" width="370" height="22" as="geometry" />
        </mxCell>
        <mxCell id="v-RMsez0oA2oCwq1SFK7-7" value="" style="endArrow=classic;html=1;rounded=0;exitX=0.008;exitY=-0.058;exitDx=0;exitDy=0;exitPerimeter=0;entryX=0.55;entryY=1.049;entryDx=0;entryDy=0;entryPerimeter=0;" edge="1" parent="1" source="v-RMsez0oA2oCwq1SFK7-6" target="KS-wqAkKazjO4-zXT2j7-21">
          <mxGeometry relative="1" as="geometry">
            <mxPoint x="1239" y="997" as="sourcePoint" />
            <mxPoint x="1540" y="880" as="targetPoint" />
          </mxGeometry>
        </mxCell>
        <mxCell id="v-RMsez0oA2oCwq1SFK7-8" value="rico:hasOrHadDigitalInstantiation" style="edgeLabel;resizable=0;html=1;;align=center;verticalAlign=middle;" connectable="0" vertex="1" parent="v-RMsez0oA2oCwq1SFK7-7">
          <mxGeometry relative="1" as="geometry" />
        </mxCell>
        <mxCell id="v-RMsez0oA2oCwq1SFK7-9" value="" style="endArrow=classic;html=1;rounded=0;entryX=0;entryY=0.5;entryDx=0;entryDy=0;exitX=1;exitY=0.5;exitDx=0;exitDy=0;" edge="1" parent="1" source="KS-wqAkKazjO4-zXT2j7-8" target="v-RMsez0oA2oCwq1SFK7-6">
          <mxGeometry relative="1" as="geometry">
            <mxPoint x="1250" y="986" as="sourcePoint" />
            <mxPoint x="1500" y="986" as="targetPoint" />
          </mxGeometry>
        </mxCell>
        <mxCell id="v-RMsez0oA2oCwq1SFK7-10" value="rico:hasGeneticLinkToRecordResource" style="edgeLabel;resizable=0;html=1;;align=center;verticalAlign=middle;" connectable="0" vertex="1" parent="v-RMsez0oA2oCwq1SFK7-9">
          <mxGeometry relative="1" as="geometry" />
        </mxCell>
      </root>
    </mxGraphModel>
  </diagram>
</mxfile>
